<mxfile host="app.diagrams.net" modified="2021-12-22T02:22:05.081Z" agent="5.0 (Macintosh; Intel Mac OS X 10_15_7) AppleWebKit/537.36 (KHTML, like Gecko) Chrome/96.0.4664.110 Safari/537.36" etag="3-KlQx3xlPZQXmIrU_VD" version="15.5.2" type="github">
  <diagram id="SQEVekZUaxfjhVjobhKg" name="第 1 页">
    <mxGraphModel dx="1186" dy="773" grid="1" gridSize="10" guides="1" tooltips="1" connect="1" arrows="1" fold="1" page="1" pageScale="1" pageWidth="827" pageHeight="1169" math="0" shadow="0">
      <root>
        <mxCell id="0" />
        <mxCell id="1" parent="0" />
        <mxCell id="lt4pnTatNIZpfxVAfMc5-1" style="edgeStyle=orthogonalEdgeStyle;rounded=0;orthogonalLoop=1;jettySize=auto;html=1;exitX=1;exitY=0.5;exitDx=0;exitDy=0;" edge="1" parent="1" source="lt4pnTatNIZpfxVAfMc5-3" target="lt4pnTatNIZpfxVAfMc5-7">
          <mxGeometry relative="1" as="geometry" />
        </mxCell>
        <mxCell id="lt4pnTatNIZpfxVAfMc5-2" value="Forward proxy(Http)" style="edgeLabel;html=1;align=center;verticalAlign=middle;resizable=0;points=[];labelBackgroundColor=#ffffff;fontStyle=1" vertex="1" connectable="0" parent="lt4pnTatNIZpfxVAfMc5-1">
          <mxGeometry x="-0.1472" relative="1" as="geometry">
            <mxPoint as="offset" />
          </mxGeometry>
        </mxCell>
        <mxCell id="lt4pnTatNIZpfxVAfMc5-3" value="Nginx" style="rounded=1;whiteSpace=wrap;html=1;" vertex="1" parent="1">
          <mxGeometry x="330" y="250" width="120" height="60" as="geometry" />
        </mxCell>
        <mxCell id="lt4pnTatNIZpfxVAfMc5-4" style="edgeStyle=orthogonalEdgeStyle;rounded=0;orthogonalLoop=1;jettySize=auto;html=1;exitX=1;exitY=0.5;exitDx=0;exitDy=0;entryX=0;entryY=0.5;entryDx=0;entryDy=0;" edge="1" parent="1" source="lt4pnTatNIZpfxVAfMc5-6" target="lt4pnTatNIZpfxVAfMc5-3">
          <mxGeometry relative="1" as="geometry" />
        </mxCell>
        <mxCell id="lt4pnTatNIZpfxVAfMc5-5" value="Https" style="edgeLabel;html=1;align=center;verticalAlign=middle;resizable=0;points=[];labelBackgroundColor=#ffffff;fontStyle=1" vertex="1" connectable="0" parent="lt4pnTatNIZpfxVAfMc5-4">
          <mxGeometry x="-0.1389" relative="1" as="geometry">
            <mxPoint as="offset" />
          </mxGeometry>
        </mxCell>
        <mxCell id="lt4pnTatNIZpfxVAfMc5-6" value="User" style="rounded=1;whiteSpace=wrap;html=1;" vertex="1" parent="1">
          <mxGeometry x="130" y="250" width="120" height="60" as="geometry" />
        </mxCell>
        <mxCell id="lt4pnTatNIZpfxVAfMc5-7" value="DOMserver in Docker" style="rounded=1;whiteSpace=wrap;html=1;" vertex="1" parent="1">
          <mxGeometry x="620" y="250" width="120" height="60" as="geometry" />
        </mxCell>
      </root>
    </mxGraphModel>
  </diagram>
</mxfile>
